<svg width="40" height="40" viewBox="0 0 40 40" fill="none" xmlns="http://www.w3.org/2000/svg">
<g id="Headphone">
<g id="icon_headphone">
<path id="Vector" d="M33.6473 20.1601C33.6473 19.976 33.6473 19.7999 33.6393 19.6158C33.5592 17.1505 32.9189 14.8292 31.8463 12.7962C29.397 8.14568 24.7145 5 19.3276 5C13.9408 5 9.25027 8.14568 6.80096 12.7962C5.72839 14.8372 5.08805 17.1505 5.00801 19.6158C5.00001 19.7999 5 19.976 5 20.1601V27.7001C5 31.0059 7.32923 33.7593 10.4429 34.4237C10.7791 34.7679 11.2914 35 11.8677 35C12.444 35 12.9563 34.7759 13.2924 34.4237L13.3164 34.3997V21.0005H13.3084C12.9803 20.6403 12.452 20.4002 11.8597 20.4002C11.2673 20.4002 10.7391 20.6403 10.4109 21.0005H10.4029C9.33031 21.2247 8.3538 21.7129 7.53736 22.3773C7.47333 22.4333 6.95303 22.8975 6.79295 23.0896V20.024C6.79295 19.8079 6.96904 19.6238 7.19316 19.6238H7.20919H7.36926C7.6334 12.8842 12.8842 7.50534 19.3116 7.50534C25.7391 7.50534 30.9819 12.8842 31.246 19.6238H31.4301C31.6542 19.6238 31.8303 19.8079 31.8303 20.024V23.0896C31.6702 22.8975 31.4861 22.7134 31.294 22.5614C31.294 22.5614 31.1499 22.4333 31.0859 22.3773C30.2695 21.7129 29.293 21.2327 28.2204 21.0005C27.8842 20.6403 27.3559 20.4002 26.7636 20.4002C26.1713 20.4002 25.659 20.6243 25.3148 20.9925V34.4157C25.3148 34.4157 25.3228 34.4237 25.3308 34.4237C25.667 34.7679 26.1873 35 26.7556 35C27.3239 35 27.8442 34.7759 28.1804 34.4237C31.294 33.7593 33.6233 31.0059 33.6233 27.7001C33.6233 27.1718 33.5592 26.6515 33.4472 26.1553C33.5592 26.6515 33.6233 27.1638 33.6233 27.7001V20.1601H33.6473Z" fill="white"/>
<g id="Group">
<path id="Vector_2" d="M10.6508 30.07C10.4587 30.07 10.3066 29.9179 10.3066 29.7258V25.6997C10.3066 25.5076 10.4587 25.3555 10.6508 25.3555C10.8429 25.3555 10.995 25.5076 10.995 25.6997V29.7258C10.995 29.9179 10.8429 30.07 10.6508 30.07Z" fill="white"/>
<path id="Vector_3" d="M9.1059 29.2125C8.91379 29.2125 8.76172 29.0605 8.76172 28.8684V26.5551C8.76172 26.363 8.91379 26.2109 9.1059 26.2109C9.298 26.2109 9.45007 26.363 9.45007 26.5551V28.8684C9.45007 29.0605 9.298 29.2125 9.1059 29.2125Z" fill="white"/>
</g>
<g id="Group_2">
<path id="Vector_4" d="M27.9399 30.1012C27.7478 30.1012 27.5957 29.9492 27.5957 29.757V25.7309C27.5957 25.5388 27.7478 25.3867 27.9399 25.3867C28.132 25.3867 28.2841 25.5388 28.2841 25.7309V29.757C28.2841 29.9492 28.132 30.1012 27.9399 30.1012Z" fill="white"/>
<path id="Vector_5" d="M29.4848 29.2438C29.2927 29.2438 29.1406 29.0917 29.1406 28.8996V26.5864C29.1406 26.3943 29.2927 26.2422 29.4848 26.2422C29.6769 26.2422 29.829 26.3943 29.829 26.5864V28.8996C29.829 29.0917 29.6769 29.2438 29.4848 29.2438Z" fill="white"/>
</g>
</g>
</g>
</svg>
